<svg width="48" height="48" viewBox="0 0 48 48" fill="none" xmlns="http://www.w3.org/2000/svg">
<g clip-path="url(#clip0_384_1806)">
<path d="M43.3125 0H4.6875C2.09867 0 0 2.09867 0 4.6875V43.3125C0 45.9013 2.09867 48 4.6875 48H43.3125C45.9013 48 48 45.9013 48 43.3125V4.6875C48 2.09867 45.9013 0 43.3125 0Z" fill="#E44D26"/>
<path d="M23 0V48H43.3125C45.9013 48 48 45.9013 48 43.3125V4.6875C48 2.09867 45.9013 0 43.3125 0H23Z" fill="#F16529"/>
<path d="M10 11H23V16.117H15.6789L16.1579 21.3579H23V26.4637H11.414M11.6421 29.0334H16.8421L17.207 33.1248L23 34.6576V40L12.3719 37.0696" fill="#EBEBEB"/>
<path d="M35 11H23V16.121H34.5571M34.1248 21.366H23V26.487H28.9051L28.3462 33.142L23 34.676V40L32.8067 37.0899" fill="white"/>
</g>
<defs>
<clipPath id="clip0_384_1806">
<rect width="48" height="48" fill="white"/>
</clipPath>
</defs>
</svg>
