<svg width="48" height="48" viewBox="0 0 48 48" fill="none" xmlns="http://www.w3.org/2000/svg">
<g clip-path="url(#clip0_384_1806)">
<path d="M43.3125 0H4.6875C2.09867 0 0 2.09867 0 4.6875V43.3125C0 45.9013 2.09867 48 4.6875 48H43.3125C45.9013 48 48 45.9013 48 43.3125V4.6875C48 2.09867 45.9013 0 43.3125 0Z" fill="#E44D26"/>
<path d="M48 4.6875C48 2.09867 45.9013 0 43.3125 0H24V48H43.3125C45.9013 48 48 45.9013 48 43.3125V4.6875Z" fill="#F16529"/>
<path d="M11 11H24.3009V16.297H16.8104L17.3004 21.7224H24.3009V27.0078H12.4468M12.6801 29.668H18.0005L18.3738 33.9033L24.3009 35.49V41.0204L13.4268 37.9869" fill="#EBEBEB"/>
<path d="M37.5552 11H24.2776V16.297H37.0651M36.5868 21.7224H24.2776V27.0194H30.8114L30.193 33.9033L24.2776 35.49V40.9971L35.1283 37.9869" fill="white"/>
</g>
<defs>
<clipPath id="clip0_384_1806">
<rect width="48" height="48" fill="white"/>
</clipPath>
</defs>
</svg>
