<svg width="48" height="48" viewBox="0 0 48 48" fill="none" xmlns="http://www.w3.org/2000/svg">
<g clip-path="url(#clip0_557_2)">
<path d="M43.3125 0H4.6875C2.09867 0 0 2.09867 0 4.6875V43.3125C0 45.9013 2.09867 48 4.6875 48H43.3125C45.9013 48 48 45.9013 48 43.3125V4.6875C48 2.09867 45.9013 0 43.3125 0Z" fill="#06050A"/>
<path d="M41.1912 41.5059L17.9743 11.6H13.6V32.3913H17.0995V16.0441L38.4442 43.6219C39.4072 42.9773 40.3249 42.27 41.1912 41.5059Z" fill="url(#paint0_linear_557_2)"/>
<path d="M34.6888 11.6H31.2222V32.4H34.6888V11.6Z" fill="url(#paint1_linear_557_2)"/>
</g>
<defs>
<linearGradient id="paint0_linear_557_2" x1="29.4889" y1="29.6556" x2="39.7444" y2="42.3667" gradientUnits="userSpaceOnUse">
<stop stop-color="white"/>
<stop offset="1" stop-opacity="0"/>
</linearGradient>
<linearGradient id="paint1_linear_557_2" x1="32.9555" y1="11.6" x2="32.8975" y2="26.8751" gradientUnits="userSpaceOnUse">
<stop stop-color="white"/>
<stop offset="1" stop-opacity="0"/>
</linearGradient>
<clipPath id="clip0_557_2">
<rect width="48" height="48" fill="white"/>
</clipPath>
</defs>
</svg>
