<svg width="48" height="48" viewBox="0 0 48 48" fill="none" xmlns="http://www.w3.org/2000/svg">
<g clip-path="url(#clip0_250_1176)">
<rect width="48" height="48" rx="10.6875" fill="#23272F"/>
<path d="M28.4681 28.9705L27.6765 30.3451C27.438 30.7592 26.9966 31.0144 26.5187 31.0144H20.4544C19.9765 31.0144 19.5351 30.7592 19.2966 30.3451L18.5049 28.9705H28.4681ZM30.6843 25.1223L29.2885 27.546H17.6845L16.2888 25.1223H30.6843ZM29.3398 21.3593L30.6865 23.6979H16.2866L17.6333 21.3593H29.3398ZM26.5187 17.802C26.9966 17.802 27.438 18.0572 27.6765 18.4713L28.5194 19.9349H18.4537L19.2966 18.4713C19.5351 18.0572 19.9765 17.802 20.4544 17.802H26.5187Z" fill="#00435B"/>
<path d="M11.6285 17.1642C10.9567 13.9068 10.8125 11.4083 11.2468 9.59415C11.505 8.51517 11.9772 7.63495 12.6951 6.99989C13.4531 6.32943 14.4114 6.00044 15.4881 6.00044C17.2645 6.00044 19.1318 6.81047 21.1275 8.34932C21.9414 8.97699 22.7862 9.73354 23.6636 10.6194C23.7334 10.5295 23.8124 10.4447 23.9003 10.3663C26.3808 8.15591 28.4691 6.78255 30.2552 6.25302C31.3173 5.93817 32.3144 5.90817 33.2224 6.21375C34.1809 6.53631 34.9446 7.20309 35.4835 8.13703C36.3727 9.67837 36.6072 11.7037 36.2757 14.2045C36.1406 15.2238 35.9095 16.3342 35.5831 17.5372C35.7063 17.5521 35.8297 17.5794 35.9519 17.6199C39.0991 18.6628 41.3276 19.7844 42.6768 21.0661C43.4795 21.8287 44.0037 22.6776 44.1932 23.6174C44.3932 24.6093 44.1982 25.6043 43.66 26.5375C42.7724 28.0766 41.1404 29.2905 38.8153 30.252C37.8817 30.6381 36.8255 30.9877 35.6453 31.3022C35.6991 31.4238 35.7409 31.5529 35.7688 31.6883C36.4406 34.9458 36.5848 37.4442 36.1506 39.2584C35.8923 40.3373 35.4201 41.2176 34.7022 41.8526C33.9442 42.5231 32.9859 42.8521 31.9092 42.8521C30.1328 42.8521 28.2655 42.042 26.2698 40.5032C25.4472 39.8689 24.5931 39.1029 23.7057 38.2048C23.6144 38.3476 23.5023 38.4804 23.3697 38.5985C20.8892 40.8089 18.8009 42.1823 17.0148 42.7118C15.9527 43.0267 14.9556 43.0567 14.0476 42.7511C13.0891 42.4285 12.3254 41.7618 11.7865 40.8278C10.8973 39.2865 10.6628 37.2612 10.9943 34.7604C11.1343 33.7042 11.3773 32.5503 11.7227 31.2968C11.5877 31.2831 11.4521 31.2546 11.3181 31.2101C8.17093 30.1672 5.94242 29.0457 4.59323 27.764C3.7905 27.0014 3.26631 26.1524 3.07681 25.2126C2.8768 24.2207 3.07183 23.2258 3.61003 22.2925C4.49762 20.7534 6.12965 19.5395 8.45468 18.5781C9.41608 18.1805 10.5076 17.8215 11.7305 17.4999C11.687 17.3932 11.6526 17.281 11.6285 17.1642Z" fill="#002B3B"/>
<path d="M33.5732 32.0086C33.8861 31.9531 34.186 32.1537 34.2558 32.4615L34.2597 32.4797L34.293 32.6529C35.3747 38.3399 34.6127 41.1834 32.0071 41.1834C29.4577 41.1834 26.2124 38.7571 22.2711 33.9044C22.1841 33.7971 22.1371 33.6629 22.1383 33.5248C22.1411 33.203 22.3993 32.9433 22.7188 32.9363L22.7373 32.9362L22.9448 32.9377C24.6033 32.9467 26.2156 32.8888 27.7818 32.7642C29.6305 32.6171 31.561 32.3652 33.5732 32.0086ZM15.6786 27.7098L15.6886 27.7266L15.7927 27.9084C16.6273 29.3593 17.4968 30.7364 18.4012 32.0397C19.4664 33.5745 20.6642 35.1283 21.9946 36.701C22.2005 36.9443 22.177 37.3054 21.9448 37.5202L21.9297 37.5337L21.7958 37.649C17.3938 41.4208 14.5326 42.1738 13.2124 39.9079C11.92 37.69 12.3886 33.6572 14.618 27.8095C14.667 27.681 14.7591 27.5734 14.8785 27.5053C15.1576 27.346 15.5115 27.438 15.6786 27.7098ZM35.807 19.3181L35.825 19.324L35.9907 19.3812C41.4243 21.2714 43.4886 23.3485 42.1838 25.6127C40.9076 27.8272 37.1975 29.4395 31.0536 30.4497C30.9166 30.4723 30.776 30.4461 30.6563 30.3757C30.3736 30.2095 30.2791 29.8456 30.4453 29.5628C31.3253 28.066 32.1179 26.5766 32.823 25.0946C33.6227 23.4139 34.3731 21.61 35.0744 19.6827C35.1807 19.3905 35.493 19.2318 35.7889 19.3129L35.807 19.3181ZM16.6137 18.3665C16.8964 18.5327 16.9909 18.8966 16.8247 19.1793C15.9447 20.6762 15.1521 22.1656 14.447 23.6475C13.6473 25.3282 12.8969 27.1322 12.1956 29.0595C12.0871 29.3577 11.7641 29.5168 11.463 29.424L11.445 29.4182L11.2793 29.3609C5.84573 27.4708 3.78137 25.3936 5.08623 23.1294C6.36243 20.915 10.0725 19.3026 16.2164 18.2924C16.3534 18.2699 16.494 18.2961 16.6137 18.3665ZM34.0576 9.05696C35.35 11.2749 34.8814 15.3077 32.652 21.1554C32.603 21.2839 32.5109 21.3914 32.3915 21.4596C32.1124 21.6189 31.7585 21.5269 31.5914 21.2551L31.5814 21.2382L31.4773 21.0565C30.6427 19.6055 29.7732 18.2284 28.8688 16.9252C27.8036 15.3903 26.6058 13.8366 25.2754 12.2638C25.0695 12.0205 25.093 11.6594 25.3252 11.4446L25.3403 11.4311L25.4742 11.3159C29.8762 7.54408 32.7374 6.7911 34.0576 9.05696ZM15.4856 7.70721C18.035 7.70721 21.2803 10.1336 25.2215 14.9863C25.3086 15.0935 25.3556 15.2277 25.3544 15.3658C25.3516 15.6876 25.0934 15.9473 24.7739 15.9543L24.7554 15.9544L24.5478 15.953C22.8893 15.944 21.277 16.0018 19.7109 16.1264C17.8622 16.2736 15.9317 16.5254 13.9195 16.8821C13.6066 16.9375 13.3067 16.7369 13.2369 16.4291L13.233 16.4109L13.1997 16.2377C12.118 10.5507 12.8799 7.70721 15.4856 7.70721Z" fill="#FF4154"/>
<path d="M20.9419 17.8763H26.0323C26.7767 17.8763 27.4643 18.2744 27.8349 18.9201L30.3908 23.3737C30.7585 24.0144 30.7585 24.802 30.3908 25.4427L27.8349 29.8963C27.4643 30.542 26.7767 30.9401 26.0323 30.9401H20.9419C20.1975 30.9401 19.5099 30.542 19.1393 29.8963L16.5834 25.4427C16.2157 24.802 16.2157 24.0144 16.5834 23.3737L19.1393 18.9201C19.5099 18.2744 20.1975 17.8763 20.9419 17.8763ZM25.2565 19.2205C26.0013 19.2205 26.6892 19.619 27.0596 20.2652L28.8419 23.3746C29.2089 24.0148 29.2089 24.8016 28.8419 25.4418L27.0596 28.5512C26.6892 29.1974 26.0013 29.596 25.2565 29.596H21.7177C20.9729 29.596 20.285 29.1974 19.9146 28.5512L18.1323 25.4418C17.7653 24.8016 17.7653 24.0148 18.1323 23.3746L19.9146 20.2652C20.285 19.619 20.9729 19.2205 21.7177 19.2205H25.2565ZM24.4202 20.6907H22.5539C21.8099 20.6907 21.1226 21.0884 20.7519 21.7336L19.81 23.3728C19.4417 24.0139 19.4417 24.8025 19.81 25.4436L20.7519 27.0828C21.1226 27.728 21.8099 28.1257 22.5539 28.1257H24.4202C25.1643 28.1257 25.8516 27.728 26.2223 27.0828L27.1641 25.4436C27.5325 24.8025 27.5325 24.0139 27.1641 23.3728L26.2223 21.7336C25.8516 21.0884 25.1643 20.6907 24.4202 20.6907ZM23.6151 22.0979C24.3586 22.0979 25.0454 22.495 25.4163 23.1394L25.5499 23.3714C25.9193 24.0133 25.9193 24.8031 25.5499 25.445L25.4163 25.677C25.0454 26.3214 24.3586 26.7185 23.6151 26.7185H23.3591C22.6156 26.7185 21.9287 26.3214 21.5578 25.677L21.4243 25.445C21.0549 24.8031 21.0549 24.0133 21.4243 23.3714L21.5578 23.1394C21.9287 22.495 22.6156 22.0979 23.3591 22.0979H23.6151ZM23.4874 23.4841C23.1565 23.4841 22.8513 23.6602 22.6861 23.9461C22.5209 24.232 22.5209 24.5844 22.6861 24.8703C22.8513 25.1562 23.1565 25.3323 23.4868 25.3323C23.8177 25.3323 24.1229 25.1562 24.2881 24.8703C24.4533 24.5844 24.4533 24.232 24.2881 23.9461C24.1229 23.6602 23.8177 23.4841 23.4874 23.4841ZM15.9897 24.4082H17.6535Z" fill="#FFD94C"/>
</g>
<defs>
<clipPath id="clip0_250_1176">
<rect width="48" height="48" fill="white"/>
</clipPath>
</defs>
</svg>
