<svg width="48" height="48" viewBox="0 0 48 48" fill="none" xmlns="http://www.w3.org/2000/svg">
<g clip-path="url(#clip0_384_1798)">
<path d="M43.3125 0H4.6875C2.09867 0 0 2.09867 0 4.6875V43.3125C0 45.9013 2.09867 48 4.6875 48H43.3125C45.9013 48 48 45.9013 48 43.3125V4.6875C48 2.09867 45.9013 0 43.3125 0Z" fill="#23272F"/>
<g clip-path="url(#clip1_384_1798)">
<path d="M24 31.3886C34.5655 31.3886 43.1304 28.0806 43.1304 23.9999C43.1304 19.9191 34.5655 16.6111 24 16.6111C13.4346 16.6111 4.86957 19.9191 4.86957 23.9999C4.86957 28.0806 13.4346 31.3886 24 31.3886Z" stroke="#61DAFB"/>
<path d="M17.6742 27.6943C22.957 36.95 30.0716 42.7992 33.5652 40.7589C37.0588 38.7185 35.6085 29.5613 30.3257 20.3056C25.043 11.0499 17.9284 5.20066 14.4348 7.24102C10.9412 9.28137 12.3915 18.4386 17.6742 27.6943Z" stroke="#61DAFB"/>
<path d="M17.6742 20.3055C12.3915 29.5612 10.9412 38.7184 14.4348 40.7588C17.9284 42.7991 25.043 36.9499 30.3257 27.6942C35.6085 18.4385 37.0588 9.28127 33.5652 7.24092C30.0716 5.20056 22.957 11.0498 17.6742 20.3055Z" stroke="#61DAFB"/>
<path d="M24 27.6064C25.969 27.6064 27.5652 25.9918 27.5652 24C27.5652 22.0082 25.969 20.3936 24 20.3936C22.031 20.3936 20.4348 22.0082 20.4348 24C20.4348 25.9918 22.031 27.6064 24 27.6064Z" fill="#61DAFB"/>
</g>
</g>
<defs>
<clipPath id="clip0_384_1798">
<rect width="48" height="48" fill="white"/>
</clipPath>
<clipPath id="clip1_384_1798">
<rect width="40" height="36" fill="white" transform="translate(4 6)"/>
</clipPath>
</defs>
</svg>
