<svg width="48" height="48" viewBox="0 0 48 48" fill="none" xmlns="http://www.w3.org/2000/svg">
<g clip-path="url(#clip0_249_483)">
<rect width="48" height="48" rx="10.6875" fill="#23272F"/>
<path d="M23.4885 19.2928C21.2815 19.2928 19.4924 21.0818 19.4924 23.2888C19.4924 25.4957 21.2815 27.2848 23.4885 27.2848C25.6954 27.2848 27.4845 25.4957 27.4845 23.2888C27.4845 21.0818 25.6954 19.2928 23.4885 19.2928Z" fill="#58C4DC"/>
<path d="M44.2722 23.325C44.2722 20.1878 41.367 17.4364 36.7415 15.6256C36.8033 15.2178 36.8592 14.8144 36.8989 14.4184C37.3552 9.91064 36.269 6.65714 33.8422 5.25564C31.1269 3.68778 27.2916 4.82577 23.4137 7.9291C19.5357 4.82577 15.7004 3.68778 12.9851 5.25564C10.5583 6.65714 9.47216 9.91064 9.92839 14.4184C9.96813 14.8144 10.0226 15.2193 10.0859 15.6285C9.70028 15.7758 9.32205 15.9318 8.95853 16.0952C4.82892 17.9516 2.55513 20.522 2.55513 23.325C2.55513 26.4622 5.46028 29.2137 10.0859 31.0245C10.0226 31.4323 9.96813 31.8356 9.92839 32.2317C9.47216 36.7394 10.5583 39.9929 12.9851 41.3944C13.8195 41.8676 14.765 42.1095 15.724 42.0952C18.0228 42.0952 20.7072 40.8851 23.4137 38.721C26.1187 40.8851 28.8045 42.0952 31.1063 42.0952C32.0653 42.1093 33.0107 41.8674 33.8451 41.3944C36.272 39.9929 37.3581 36.7394 36.9019 32.2317C36.8621 31.8356 36.8062 31.4323 36.7444 31.0245C41.37 29.2167 44.2751 26.4608 44.2751 23.325M31.0886 6.54232C31.7052 6.52744 32.3148 6.67681 32.8547 6.97513C34.5398 7.94824 35.2962 10.5878 34.9283 14.2167C34.9033 14.4641 34.8739 14.7143 34.8385 14.9661C32.9152 14.3867 30.9457 13.9734 28.9517 13.7309C27.7429 12.1237 26.3988 10.623 24.9339 9.24522C27.2342 7.46684 29.3932 6.54232 31.0871 6.54232M30.2968 27.2999C29.5525 28.5922 28.742 29.8452 27.8685 31.0539C26.388 31.2061 24.9005 31.2817 23.4122 31.2806C21.9243 31.2817 20.4374 31.206 18.9573 31.0539C18.0862 29.8452 17.2781 28.5921 16.5364 27.2999C15.7921 26.0112 15.1156 24.6844 14.5098 23.325C15.1156 21.9657 15.7921 20.6389 16.5364 19.3502C17.2769 18.0631 18.0825 16.8146 18.95 15.6094C20.4327 15.4535 21.9227 15.3759 23.4137 15.3768C24.9015 15.3759 26.3884 15.4516 27.8685 15.6035C28.7389 16.8105 29.5475 18.061 30.291 19.3502C31.0347 20.6392 31.7111 21.9659 32.3175 23.325C31.7111 24.6841 31.0347 26.0109 30.291 27.2999M33.33 25.8277C33.7971 27.1018 34.1806 28.405 34.478 29.729C33.1874 30.1314 31.8718 30.4486 30.5397 30.6785C31.0459 29.915 31.5365 29.1205 32.0114 28.2951C32.4809 27.4795 32.9209 26.6566 33.3359 25.8336M20.6189 33.1783C21.5343 33.2342 22.4688 33.2666 23.4151 33.2666C24.3614 33.2666 25.3019 33.2342 26.2187 33.1783C25.3494 34.2198 24.4129 35.2034 23.4151 36.1226C22.4195 35.2035 21.4854 34.2199 20.6189 33.1783ZM16.2891 30.6756C14.9565 30.4467 13.6405 30.1305 12.3494 29.729C12.6455 28.407 13.0275 27.1058 13.4929 25.8336C13.902 26.6566 14.3406 27.4795 14.8174 28.2951C15.2942 29.1107 15.7873 29.9145 16.2891 30.6785M13.4929 20.815C13.0292 19.5475 12.6482 18.2512 12.3523 16.9344C13.6402 16.5324 14.9528 16.2142 16.2818 15.9819C15.7784 16.743 15.2854 17.5321 14.81 18.355C14.3347 19.1779 13.9005 19.9906 13.4855 20.815M26.2099 13.4703C25.2945 13.4144 24.36 13.382 23.4063 13.382C22.4605 13.382 21.5284 13.4115 20.6101 13.4703C21.4766 12.4286 22.4107 11.4451 23.4063 10.526C24.4044 11.4448 25.341 12.4284 26.2099 13.4703ZM32.0084 18.355C31.5316 17.5286 31.0386 16.7336 30.5294 15.9701C31.865 16.2 33.1841 16.5177 34.478 16.9211C34.1811 18.2428 33.7991 19.544 33.3344 20.8165C32.9253 19.9935 32.4853 19.1706 32.0099 18.3565M11.9049 14.2182C11.5326 10.5908 12.2934 7.94971 13.9771 6.9766C14.5172 6.67875 15.1265 6.5294 15.7431 6.54379C17.437 6.54379 19.596 7.46831 21.8963 9.24669C20.4305 10.6254 19.0854 12.1271 17.8756 13.7353C15.8822 13.979 13.9129 14.3907 11.9888 14.9661C11.9549 14.7143 11.924 14.4655 11.9005 14.2182M9.77386 17.9075C10.0005 17.8093 10.2316 17.7112 10.467 17.613C10.93 19.5667 11.5577 21.4775 12.3435 23.325C11.5562 25.1762 10.928 27.091 10.4656 29.0488C6.71565 27.5104 4.54194 25.3787 4.54194 23.325C4.54194 21.3788 6.45516 19.4046 9.77386 17.9075ZM13.9771 39.6735C12.2934 38.7004 11.5326 36.0593 11.9049 32.4319C11.9284 32.1845 11.9593 31.9357 11.9932 31.6825C13.9166 32.2618 15.8861 32.675 17.88 32.9177C19.0892 34.5255 20.4333 36.0272 21.8978 37.4063C18.6909 39.884 15.7608 40.701 13.9815 39.6735M34.9268 32.4319C35.2948 36.0608 34.5383 38.7004 32.8532 39.6735C31.0754 40.704 28.1437 39.884 24.9383 37.4063C26.4024 36.0272 27.746 34.5255 28.9546 32.9177C30.9486 32.6752 32.9181 32.2619 34.8415 31.6825C34.8768 31.9357 34.9062 32.1845 34.9313 32.4319M36.3706 29.0459C35.9069 27.0892 35.2782 25.1754 34.4912 23.325C35.2778 21.4736 35.906 19.5589 36.3691 17.6012C40.1117 19.1397 42.2913 21.2714 42.2913 23.325C42.2913 25.3787 40.1176 27.5104 36.3676 29.0488" fill="#58C4DC"/>
</g>
<defs>
<clipPath id="clip0_249_483">
<rect width="48" height="48" fill="white"/>
</clipPath>
</defs>
</svg>
