<svg width="48" height="48" viewBox="0 0 48 48" fill="none" xmlns="http://www.w3.org/2000/svg">
<g clip-path="url(#clip0_384_1835)">
<path d="M43.3125 0H4.6875C2.09867 0 0 2.09867 0 4.6875V43.3125C0 45.9013 2.09867 48 4.6875 48H43.3125C45.9013 48 48 45.9013 48 43.3125V4.6875C48 2.09867 45.9013 0 43.3125 0Z" fill="#764ABC"/>
<path d="M32.0229 31.8405C33.4621 31.6916 34.5539 30.4518 34.5043 28.9637C34.4547 27.4759 33.2139 26.2855 31.725 26.2855H31.6259C30.0872 26.3351 28.8962 27.6246 28.9458 29.1621C28.9955 29.9061 29.2932 30.5509 29.7399 30.9972C28.0525 34.3204 25.4718 36.7506 21.6007 38.7841C18.9704 40.1729 16.2408 40.6689 13.5113 40.3218C11.2779 40.0241 9.54091 39.0323 8.44891 37.3954C6.86088 34.9651 6.71204 32.3364 8.05205 29.7077C8.99506 27.823 10.4838 26.4342 11.4268 25.7399C11.2283 25.0951 10.9304 24.004 10.7816 23.2105C3.58533 28.4183 4.32984 35.4611 6.51353 38.7841C8.15123 41.2641 11.4764 42.8016 15.149 42.8016C16.1415 42.8016 17.134 42.7024 18.1267 42.4545C24.4793 41.2145 29.2933 37.445 32.0229 31.8405ZM40.7577 25.6904C36.9858 21.2761 31.4274 18.8459 25.0748 18.8459H24.2808C23.8341 17.9531 22.8911 17.3579 21.8489 17.3579H21.7496C20.2112 17.4075 19.0202 18.697 19.0697 20.2346C19.1194 21.7225 20.3601 22.9129 21.8489 22.9129H21.9481C23.0399 22.8632 23.9829 22.1689 24.3799 21.2265H25.2733C29.0452 21.2265 32.6184 22.3176 35.8444 24.4504C38.3258 26.0871 40.1125 28.2199 41.105 30.7989C41.9487 32.882 41.899 34.9155 41.0057 36.6515C39.6162 39.2801 37.2836 40.7185 34.2066 40.7185C32.2214 40.7185 30.3355 40.1232 29.3429 39.6769C28.797 40.1729 27.8043 40.9664 27.1095 41.4625C29.2437 42.4544 31.4274 43 33.5117 43C38.2761 43 41.7998 40.3712 43.1399 37.7426C44.5791 34.8659 44.4797 29.9061 40.7577 25.6904ZM15.546 32.6835C15.5957 34.1715 16.8363 35.3617 18.3252 35.3617H18.4245C19.963 35.3122 21.1541 34.0226 21.1044 32.4851C21.0549 30.9971 19.8141 29.8069 18.3252 29.8069H18.226C18.1267 29.8069 17.9777 29.8069 17.8787 29.8563C15.8438 26.4837 15.0001 22.8136 15.298 18.8457C15.4963 15.8699 16.489 13.2907 18.226 11.158C19.6652 9.32284 22.4444 8.43009 24.3304 8.38061C29.591 8.28135 31.8242 14.8282 31.9732 17.457C32.6184 17.6057 33.7102 17.953 34.4547 18.201C33.8591 10.1663 28.8962 6 24.1319 6C19.6652 6 15.546 9.22388 13.9081 13.9852C11.6253 20.3337 13.1141 26.4342 15.8933 31.2452C15.6453 31.5923 15.4963 32.1378 15.546 32.6835Z" fill="white"/>
</g>
<defs>
<clipPath id="clip0_384_1835">
<rect width="48" height="48" fill="white"/>
</clipPath>
</defs>
</svg>
