<svg width="48" height="48" viewBox="0 0 48 48" fill="none" xmlns="http://www.w3.org/2000/svg">
<g clip-path="url(#clip0_249_527)">
<rect width="48" height="48" rx="10.6875" fill="#23272F"/>
<path d="M30.7513 30.5353C32.0429 30.4027 33.0227 29.2989 32.9782 27.9741C32.9337 26.6494 31.8202 25.5896 30.484 25.5896H30.395C29.0142 25.6338 27.9453 26.7819 27.9899 28.1507C28.0344 28.8131 28.3016 29.3871 28.7024 29.7845C27.1881 32.7431 24.8721 34.9068 21.3981 36.7172C19.0375 37.9536 16.5879 38.3952 14.1383 38.0862C12.134 37.8212 10.5752 36.9381 9.59517 35.4808C8.17002 33.3171 8.03644 30.9767 9.23902 28.6365C10.0853 26.9585 11.4213 25.7221 12.2676 25.1039C12.0895 24.5298 11.8222 23.5584 11.6886 22.852C5.23043 27.4884 5.89857 33.7587 7.8583 36.7172C9.32803 38.9252 12.3122 40.294 15.6081 40.294C16.4988 40.294 17.3895 40.2056 18.2804 39.985C23.9814 38.881 28.3017 35.525 30.7513 30.5353ZM38.5902 25.0598C35.2052 21.1298 30.2169 18.9661 24.5158 18.9661H23.8033C23.4024 18.1713 22.5561 17.6414 21.6208 17.6414H21.5317C20.1511 17.6855 19.0822 18.8336 19.1267 20.2025C19.1712 21.5272 20.2847 22.587 21.6208 22.587H21.7098C22.6897 22.5428 23.536 21.9246 23.8923 21.0856H24.694C28.079 21.0856 31.2857 22.057 34.1809 23.9558C36.4078 25.413 38.0112 27.3118 38.9019 29.6079C39.6591 31.4625 39.6145 33.2729 38.8128 34.8185C37.5658 37.1588 35.4725 38.4394 32.711 38.4394C30.9294 38.4394 29.237 37.9094 28.3461 37.512C27.8563 37.9536 26.9654 38.66 26.3419 39.1018C28.2571 39.9848 30.2169 40.4706 32.0875 40.4706C36.3632 40.4706 39.5255 38.1302 40.7281 35.7899C42.0197 33.2288 41.9305 28.8131 38.5902 25.0598ZM15.9644 31.2858C16.0089 32.6105 17.1224 33.6702 18.4585 33.6702H18.5477C19.9284 33.6262 20.9972 32.478 20.9527 31.1092C20.9082 29.7844 19.7947 28.7247 18.4585 28.7247H18.3695C18.2804 28.7247 18.1467 28.7247 18.0578 28.7688C16.2316 25.7661 15.4745 22.4986 15.7418 18.966C15.9198 16.3166 16.8106 14.0204 18.3695 12.1216C19.6611 10.4877 22.1552 9.69293 23.8478 9.64888C28.5689 9.56051 30.573 15.3892 30.7067 17.7296C31.2857 17.862 32.2656 18.1712 32.9337 18.392C32.3992 11.2386 27.9453 7.52942 23.6697 7.52942C19.6611 7.52942 15.9644 10.3996 14.4945 14.6387C12.4458 20.2908 13.7819 25.7221 16.2761 30.0053C16.0535 30.3143 15.9198 30.8 15.9644 31.2858Z" fill="#764ABC"/>
</g>
<defs>
<clipPath id="clip0_249_527">
<rect width="48" height="48" fill="white"/>
</clipPath>
</defs>
</svg>
