<svg width="48" height="48" viewBox="0 0 48 48" fill="none" xmlns="http://www.w3.org/2000/svg">
<g clip-path="url(#clip0_250_1155)">
<rect width="48" height="48" rx="10.6875" fill="#23272F"/>
<path d="M24.1316 27.4965C23.5217 27.7809 22.8534 28.1516 21.5156 28.8967C21.0084 29.1863 20.4783 29.4759 19.985 29.7487C19.9508 29.714 19.9153 29.6702 19.881 29.6342C17.2346 26.7642 12.3399 24.7372 12.5478 20.8827C12.6252 19.4786 13.1007 15.7927 21.948 11.3166C29.2292 7.67448 35.023 8.68347 36.0235 10.9215C37.4615 14.1119 32.918 20.0488 25.3984 20.9097C24.5661 21.0811 23.7066 21.0604 22.8833 20.8492C22.06 20.638 21.294 20.2418 20.6419 19.6897C20.2437 19.2508 20.1841 19.2251 20.037 19.3126C19.7948 19.4413 19.9508 19.839 20.037 20.0668C20.3239 20.5939 20.7119 21.0572 21.1782 21.4295C21.6445 21.8017 22.1797 22.0753 22.7519 22.234C25.7111 22.8832 28.7964 22.573 31.5726 21.3473C36.13 19.5571 39.6882 14.5804 38.6458 10.408C37.5997 6.17773 30.6811 4.78265 24.1354 7.14296C20.0361 8.54499 16.2487 10.752 12.9891 13.6383C9.38276 17.0617 8.81213 20.0372 9.04546 21.283C9.88491 25.7063 15.893 28.5853 18.3023 30.7178C18.1755 30.7886 18.069 30.8465 17.9739 30.9018C16.7718 31.508 12.189 33.9391 11.0465 36.5105C9.74923 39.4242 11.2544 41.513 12.2486 41.7935C13.7468 42.1577 15.3197 42.038 16.7476 41.451C18.1755 40.8641 19.3871 39.8392 20.2133 38.5194C20.9149 37.4251 21.3457 36.175 21.4691 34.8754C21.5925 33.5758 21.4049 32.2652 20.9221 31.055C21.2069 30.8244 21.5107 30.619 21.8301 30.4411C22.4438 30.073 23.0284 29.7101 23.547 29.4295C25.3228 28.5854 27.2607 28.1507 29.2216 28.1567C33.3377 28.6483 34.1505 31.2545 33.9946 32.3523C33.9216 32.7417 33.7673 33.1109 33.542 33.4347C33.3167 33.7586 33.0257 34.0298 32.6885 34.23C32.4032 34.414 32.3081 34.4758 32.3334 34.607C32.3677 34.8001 32.5059 34.7911 32.7481 34.7563C33.3665 34.558 33.9113 34.1744 34.311 33.656C34.7107 33.1375 34.9465 32.5086 34.9875 31.8516C35.1143 29.2777 32.6961 26.454 28.4151 26.4798C27.1332 26.482 25.8642 26.7387 24.6794 27.2352C24.4892 27.315 24.3045 27.4008 24.1253 27.4926L24.1316 27.4965ZM18.0132 37.5851C16.6462 39.0947 14.7441 39.6649 13.9224 39.1822C13.0348 38.6674 13.386 36.4345 15.0637 34.8374C16.0573 33.9288 17.1312 33.115 18.2719 32.4063C18.471 32.2776 18.7652 32.1077 19.1189 31.8915C19.1798 31.8568 19.214 31.8388 19.214 31.8388L19.422 31.7101C19.7212 32.7282 19.7484 33.8087 19.5009 34.8411C19.2533 35.8734 18.7399 36.8204 18.0132 37.5851Z" fill="#CD6799"/>
</g>
<defs>
<clipPath id="clip0_250_1155">
<rect width="48" height="48" fill="white"/>
</clipPath>
</defs>
</svg>
