<svg width="48" height="48" viewBox="0 0 48 48" fill="none" xmlns="http://www.w3.org/2000/svg">
<g clip-path="url(#clip0_384_1781)">
<path d="M43.3125 0H4.6875C2.09867 0 0 2.09867 0 4.6875V43.3125C0 45.9013 2.09867 48 4.6875 48H43.3125C45.9013 48 48 45.9013 48 43.3125V4.6875C48 2.09867 45.9013 0 43.3125 0Z" fill="#CD6799"/>
<path d="M38.7279 26.9958C37.3411 27.0031 36.1359 27.3392 35.1267 27.8361C34.7564 27.0981 34.3861 26.4405 34.3207 25.9583C34.2481 25.3957 34.161 25.0522 34.2481 24.38C34.3353 23.7078 34.7273 22.7506 34.7201 22.6775C34.7128 22.6045 34.6329 22.2611 33.8343 22.2538C33.0356 22.2464 32.3459 22.4072 32.266 22.6191C32.1862 22.831 32.0337 23.3132 31.932 23.8101C31.7941 24.5408 30.3347 27.1493 29.4998 28.5156C29.2311 27.9822 28.9988 27.5146 28.948 27.142C28.8754 26.5793 28.7882 26.2359 28.8754 25.5637C28.9625 24.8915 29.3546 23.9343 29.3473 23.8612C29.34 23.7882 29.2602 23.4448 28.4615 23.4374C27.6629 23.4301 26.9731 23.5909 26.8933 23.8028C26.8134 24.0147 26.7263 24.5115 26.5593 24.9938C26.3923 25.476 24.4537 29.8308 23.9455 30.9561C23.6841 31.5333 23.459 31.9936 23.2993 32.3078C23.2993 32.3078 23.2921 32.3297 23.2703 32.3663C23.1323 32.6366 23.0525 32.7828 23.0525 32.7828C23.0525 32.7828 23.0525 32.7828 23.0525 32.7901C22.9436 32.9874 22.8274 33.17 22.7693 33.17C22.7257 33.17 22.6459 32.6439 22.7838 31.9279C23.0742 30.4154 23.764 28.0626 23.7567 27.9822C23.7567 27.9384 23.8874 27.5292 23.3066 27.3173C22.7403 27.1054 22.537 27.4562 22.4861 27.4562C22.4353 27.4562 22.399 27.5804 22.399 27.5804C22.399 27.5804 23.0307 24.9353 21.1938 24.9353C20.0466 24.9353 18.4638 26.1994 17.6797 27.3392C17.186 27.6096 16.1332 28.1868 15.0078 28.8079C14.5795 29.049 14.1366 29.2901 13.7227 29.5167C13.6937 29.4874 13.6646 29.4509 13.6356 29.4217C11.4139 27.0324 7.30445 25.3445 7.47871 22.1368C7.54405 20.9678 7.94338 17.8989 15.3709 14.1725C21.4842 11.1402 26.3487 11.9805 27.1909 13.8437C28.3962 16.5034 24.5844 21.4427 18.2678 22.1588C15.8573 22.4291 14.594 21.4939 14.2745 21.1431C13.9405 20.7778 13.8897 20.7559 13.7663 20.8289C13.563 20.9385 13.6937 21.2673 13.7663 21.4573C13.9551 21.9542 14.7319 22.831 16.0461 23.2621C17.2078 23.642 20.0321 23.8539 23.4518 22.5241C27.2781 21.0335 30.2694 16.8906 29.3909 13.4199C28.5123 9.89806 22.704 8.73629 17.2078 10.7018C13.9405 11.8709 10.3974 13.7122 7.84899 16.1088C4.82137 18.9584 4.34217 21.4354 4.53821 22.473C5.24247 26.1556 10.2885 28.5522 12.3069 30.3277C12.2053 30.3862 12.1109 30.4373 12.031 30.4811C11.0218 30.9853 7.17376 33.0093 6.21538 35.1501C5.12631 37.576 6.38963 39.315 7.22459 39.5488C9.81658 40.2722 12.4812 38.9716 13.9115 36.8234C15.3418 34.6752 15.1676 31.884 14.5069 30.6054C14.4996 30.5907 14.4923 30.5761 14.4778 30.5615C14.7392 30.4081 15.0078 30.2473 15.2692 30.0939C15.7847 29.787 16.2929 29.502 16.7286 29.2682C16.4817 29.9477 16.3002 30.7588 16.2131 31.9279C16.1042 33.3015 16.6632 35.0844 17.3965 35.7858C17.7233 36.0927 18.1081 36.1 18.3549 36.1C19.2117 36.1 19.5965 35.384 20.0248 34.5364C20.5476 33.4988 21.0195 32.2932 21.0195 32.2932C21.0195 32.2932 20.4314 35.552 22.0287 35.552C22.6096 35.552 23.1977 34.7921 23.459 34.4049C23.459 34.4122 23.459 34.4122 23.459 34.4122C23.459 34.4122 23.4736 34.3902 23.5026 34.3391C23.5607 34.2441 23.597 34.1857 23.597 34.1857C23.597 34.1857 23.597 34.1784 23.597 34.171C23.8293 33.7619 24.3521 32.8339 25.129 31.2922C26.1309 29.3048 27.0966 26.8205 27.0966 26.8205C27.0966 26.8205 27.1837 27.4269 27.4814 28.4353C27.6556 29.0271 28.0186 29.6774 28.3091 30.3058C28.0767 30.6346 27.9315 30.8172 27.9315 30.8172C27.9315 30.8172 27.9315 30.8173 27.9388 30.8246C27.75 31.073 27.5467 31.3433 27.3216 31.6064C26.5302 32.5563 25.5864 33.645 25.4557 33.9591C25.3032 34.3318 25.3395 34.6021 25.6299 34.8213C25.8405 34.9821 26.218 35.004 26.6028 34.9821C27.3144 34.9309 27.8153 34.7556 28.0622 34.646C28.447 34.5072 28.8972 34.2953 29.3183 33.9811C30.0951 33.4038 30.5671 32.5782 30.5235 31.4895C30.5017 30.8903 30.3057 30.2912 30.0661 29.7285C30.1387 29.6263 30.204 29.524 30.2766 29.4217C31.5037 27.6169 32.4548 25.6368 32.4548 25.6368C32.4548 25.6368 32.5419 26.2432 32.8396 27.2516C32.9848 27.763 33.2825 28.3183 33.5439 28.859C32.3895 29.8016 31.6779 30.8976 31.4238 31.6137C30.9664 32.9435 31.3222 33.5427 31.9974 33.6815C32.3023 33.7473 32.738 33.6011 33.0574 33.4623C33.464 33.3308 33.9432 33.1043 34.4006 32.7681C35.1775 32.1909 35.9253 31.3872 35.8817 30.2985C35.86 29.8016 35.7293 29.3121 35.5478 28.8371C36.5279 28.4279 37.7913 28.2014 39.4031 28.3914C42.8591 28.8006 43.5416 30.9707 43.4109 31.884C43.2802 32.7974 42.5541 33.2942 42.3145 33.4477C42.0749 33.6011 41.9951 33.6523 42.0169 33.7619C42.0459 33.9226 42.1621 33.9153 42.3654 33.8861C42.6485 33.8349 44.1805 33.1481 44.2458 31.4676C44.3547 29.3194 42.3218 26.9739 38.7279 26.9958ZM12.0673 36.0416C10.9202 37.2983 9.32287 37.7733 8.63312 37.3714C7.89255 36.9403 8.18297 35.0844 9.59151 33.7546C10.4482 32.9435 11.5518 32.1909 12.2852 31.7306C12.4521 31.6283 12.699 31.4822 12.9967 31.2995C13.0475 31.2703 13.0765 31.2557 13.0765 31.2557C13.1346 31.2191 13.1927 31.1826 13.2508 31.1461C13.7663 33.0458 13.2726 34.719 12.0673 36.0416ZM20.4169 30.3277C20.0176 31.3068 19.1826 33.813 18.6744 33.6742C18.2388 33.5573 17.9701 31.6575 18.5873 29.7797C18.8995 28.8371 19.5602 27.7119 19.945 27.2735C20.5694 26.572 21.2591 26.3382 21.4261 26.6232C21.6367 26.9958 20.6638 29.7139 20.4169 30.3277ZM27.3071 33.645C27.1401 33.7326 26.9804 33.7911 26.9078 33.7473C26.857 33.718 26.9804 33.6011 26.9804 33.6011C26.9804 33.6011 27.8444 32.6659 28.1856 32.2421C28.3817 31.9936 28.614 31.7014 28.8609 31.3726C28.8609 31.4018 28.8609 31.4383 28.8609 31.4676C28.8609 32.5855 27.7863 33.3381 27.3071 33.645ZM32.6218 32.4247C32.4984 32.3371 32.5201 32.0448 32.934 31.1314C33.0937 30.7734 33.4713 30.1743 34.1174 29.597C34.1901 29.8308 34.2409 30.0573 34.2336 30.2692C34.2264 31.6794 33.2244 32.2055 32.6218 32.4247Z" fill="white"/>
</g>
<defs>
<clipPath id="clip0_384_1781">
<rect width="48" height="48" fill="white"/>
</clipPath>
</defs>
</svg>
