<svg width="64" height="64" viewBox="0 0 64 64" fill="none" xmlns="http://www.w3.org/2000/svg">
<g clip-path="url(#clip0_384_1781)">
<path d="M57.75 0H6.25C2.79822 0 0 2.79822 0 6.25V57.75C0 61.2018 2.79822 64 6.25 64H57.75C61.2018 64 64 61.2018 64 57.75V6.25C64 2.79822 61.2018 0 57.75 0Z" fill="#CD6799"/>
<path d="M51.6371 35.9944C49.7881 36.0042 48.1812 36.4523 46.8355 37.1148C46.3418 36.1308 45.8481 35.254 45.761 34.611C45.6642 33.8609 45.548 33.403 45.6642 32.5067C45.7804 31.6104 46.3031 30.3342 46.2934 30.2367C46.2837 30.1393 46.1773 29.6814 45.1124 29.6717C44.0475 29.6619 43.1279 29.8763 43.0214 30.1588C42.9149 30.4413 42.7116 31.0843 42.5761 31.7468C42.3921 32.721 40.4463 36.199 39.333 38.0208C38.9748 37.3096 38.6651 36.6861 38.5973 36.1893C38.5005 35.4391 38.3843 34.9812 38.5005 34.0849C38.6167 33.1886 39.1394 31.9124 39.1297 31.815C39.1201 31.7176 39.0136 31.2597 37.9487 31.2499C36.8838 31.2402 35.9642 31.4545 35.8577 31.737C35.7512 32.0196 35.635 32.6821 35.4124 33.325C35.1897 33.968 32.605 39.7745 31.9273 41.2748C31.5788 42.0444 31.2787 42.6582 31.0658 43.0771C31.0658 43.0771 31.0561 43.1063 31.027 43.155C30.8431 43.5155 30.7366 43.7104 30.7366 43.7104C30.7366 43.7104 30.7366 43.7103 30.7366 43.7201C30.5914 43.9831 30.4365 44.2267 30.3591 44.2267C30.301 44.2267 30.1945 43.5252 30.3784 42.5705C30.7657 40.5538 31.6853 37.4168 31.6756 37.3097C31.6756 37.2512 31.8499 36.7056 31.0754 36.4231C30.3203 36.1406 30.0493 36.6082 29.9815 36.6082C29.9138 36.6082 29.8654 36.7738 29.8654 36.7738C29.8654 36.7738 30.7076 33.2471 28.2584 33.2471C26.7288 33.2471 24.6184 34.9325 23.5729 36.4523C22.9146 36.8128 21.5109 37.5824 20.0104 38.4105C19.4393 38.732 18.8488 39.0535 18.297 39.3555C18.2582 39.3166 18.2195 39.2679 18.1808 39.2289C15.2185 36.0431 9.73927 33.7927 9.97161 29.5158C10.0587 27.957 10.5912 23.8653 20.4945 18.8967C28.6456 14.8536 35.1316 15.974 36.2546 18.4583C37.8616 22.0045 32.7792 28.5903 24.3571 29.545C21.1431 29.9055 19.4586 28.6585 19.0327 28.1908C18.5874 27.7037 18.5196 27.6745 18.3551 27.7719C18.084 27.9181 18.2582 28.3565 18.3551 28.6098C18.6068 29.2722 19.6426 30.4413 21.3948 31.0161C22.9437 31.5227 26.7095 31.8052 31.269 30.0321C36.3708 28.0447 40.3592 22.5208 39.1878 17.8932C38.0165 13.1974 30.2719 11.6484 22.9437 14.2691C18.5874 15.8278 13.8632 18.2829 10.4653 21.4784C6.42849 25.2779 5.78956 28.5805 6.05094 29.9639C6.98997 34.8741 13.718 38.0696 16.4092 40.4369C16.2737 40.5149 16.1479 40.5831 16.0414 40.6415C14.6958 41.3137 9.56502 44.0124 8.28717 46.8669C6.83507 50.1013 8.51951 52.42 9.63278 52.7317C13.0888 53.6962 16.6416 51.9621 18.5487 49.0979C20.4558 46.2336 20.2234 42.512 19.3425 40.8071C19.3328 40.7877 19.3231 40.7682 19.3038 40.7487C19.6523 40.5441 20.0104 40.3298 20.359 40.1252C21.0463 39.716 21.7239 39.3361 22.3048 39.0243C21.9756 39.9303 21.7336 41.0117 21.6174 42.5705C21.4722 44.4021 22.2176 46.7792 23.1954 47.7144C23.631 48.1236 24.1441 48.1334 24.4732 48.1334C25.6155 48.1334 26.1286 47.1786 26.6998 46.0485C27.3968 44.6651 28.026 43.0576 28.026 43.0576C28.026 43.0576 27.2419 47.4027 29.3716 47.4027C30.1461 47.4027 30.9302 46.3895 31.2787 45.8731C31.2787 45.8829 31.2787 45.8829 31.2787 45.8829C31.2787 45.8829 31.2981 45.8537 31.3368 45.7855C31.4143 45.6588 31.4627 45.5809 31.4627 45.5809C31.4627 45.5809 31.4627 45.5711 31.4627 45.5614C31.7724 45.0158 32.4695 43.7785 33.5053 41.7229C34.8412 39.073 36.1287 35.7606 36.1287 35.7606C36.1287 35.7606 36.2449 36.5692 36.6418 37.9137C36.8741 38.7028 37.3582 39.5699 37.7454 40.4077C37.4356 40.8461 37.242 41.0897 37.242 41.0897C37.242 41.0897 37.242 41.0897 37.2517 41.0994C37 41.4306 36.7289 41.7911 36.4288 42.1418C35.3736 43.4083 34.1152 44.8599 33.9409 45.2789C33.7376 45.7757 33.786 46.1362 34.1732 46.4285C34.454 46.6428 34.9574 46.672 35.4705 46.6428C36.4192 46.5746 37.0871 46.3408 37.4163 46.1946C37.9293 46.0095 38.5295 45.727 39.091 45.3081C40.1268 44.5384 40.7561 43.4376 40.698 41.986C40.669 41.1871 40.4076 40.3882 40.0881 39.6381C40.1849 39.5017 40.2721 39.3653 40.3689 39.2289C42.0049 36.8225 43.2731 34.1824 43.2731 34.1824C43.2731 34.1824 43.3892 34.991 43.7861 36.3354C43.9797 37.0174 44.3767 37.7578 44.7252 38.4787C43.1859 39.7355 42.2372 41.1968 41.8984 42.1516C41.2885 43.9247 41.7629 44.7236 42.6632 44.9087C43.0698 44.9963 43.6506 44.8015 44.0766 44.6164C44.6187 44.441 45.2576 44.139 45.8675 43.6909C46.9033 42.9212 47.9004 41.8496 47.8423 40.398C47.8133 39.7355 47.639 39.0828 47.397 38.4495C48.7039 37.9039 50.3883 37.6019 52.5375 37.8552C57.1454 38.4008 58.0554 41.2943 57.8812 42.512C57.7069 43.7298 56.7389 44.3923 56.4194 44.5969C56.0999 44.8015 55.9934 44.8697 56.0225 45.0158C56.0612 45.2302 56.2161 45.2204 56.4872 45.1814C56.8647 45.1132 58.9073 44.1975 58.9945 41.9567C59.1397 39.0925 56.4291 35.9652 51.6371 35.9944ZM16.0898 48.0554C14.5602 49.7311 12.4305 50.3644 11.5108 49.8285C10.5234 49.2537 10.9106 46.7792 12.7887 45.0061C13.931 43.9247 15.4025 42.9212 16.3802 42.3075C16.6029 42.1711 16.932 41.9762 17.3289 41.7327C17.3967 41.6937 17.4354 41.6742 17.4354 41.6742C17.5128 41.6255 17.5903 41.5768 17.6677 41.5281C18.3551 44.0611 17.6968 46.2921 16.0898 48.0554ZM27.2225 40.4369C26.6901 41.7424 25.5768 45.084 24.8992 44.8989C24.3183 44.743 23.9602 42.21 24.783 39.7063C25.1993 38.4495 26.0802 36.9492 26.5933 36.3646C27.4258 35.4294 28.3455 35.1176 28.5681 35.4976C28.8489 35.9944 27.5517 39.6186 27.2225 40.4369ZM36.4095 44.8599C36.1868 44.9769 35.9738 45.0548 35.877 44.9963C35.8093 44.9574 35.9738 44.8015 35.9738 44.8015C35.9738 44.8015 37.1258 43.5545 37.5808 42.9894C37.8422 42.6582 38.152 42.2685 38.4811 41.8301C38.4811 41.8691 38.4811 41.9178 38.4811 41.9567C38.4811 43.4473 37.0484 44.4508 36.4095 44.8599ZM43.4957 43.233C43.3311 43.1161 43.3602 42.7264 43.912 41.5086C44.125 41.0312 44.6284 40.2323 45.4899 39.4627C45.5867 39.7745 45.6545 40.0765 45.6448 40.359C45.6351 42.2393 44.2992 42.9407 43.4957 43.233Z" fill="white"/>
</g>
<defs>
<clipPath id="clip0_384_1781">
<rect width="64" height="64" fill="white"/>
</clipPath>
</defs>
</svg>
