<svg width="48" height="48" viewBox="0 0 48 48" fill="none" xmlns="http://www.w3.org/2000/svg">
<g clip-path="url(#clip0_557_26)">
<path d="M43.3125 0H4.6875C2.09867 0 0 2.09867 0 4.6875V43.3125C0 45.9013 2.09867 48 4.6875 48H43.3125C45.9013 48 48 45.9013 48 43.3125V4.6875C48 2.09867 45.9013 0 43.3125 0Z" fill="#06050A"/>
<path d="M33.2928 24.2049C33.4984 24.6838 34.4028 26.5913 34.5878 27.062C33.4573 28.9593 33.19 29.4526 30.8201 32.4639C21.1798 42.5563 13.743 44.1863 9.18396 39.4731C8.68981 38.9146 8.28992 38.2794 8 37.5923C8.09661 37.7691 8.2261 37.9644 8.38438 38.1761L8.44193 38.2521L8.47071 38.2912L8.53237 38.3693L8.59609 38.4495L8.66392 38.5296L8.73381 38.6118L8.8037 38.6941L8.87975 38.7824L8.9558 38.8688L9.03597 38.9572L9.07708 39.0024L9.1593 39.0928L9.20041 39.138L9.28879 39.2305L9.33401 39.2778C14.9661 44.4309 20.5796 40.0096 28.2055 31.467C29.3565 30.1144 31.0523 27.6931 33.2928 24.2029V24.2049ZM36.2383 7.8987C39.8067 11.0004 39.8067 15.8123 37.1304 22.6838C36.9249 22.1782 36.0204 20.1576 35.7943 19.6417C37.9012 13.8041 37.9526 11.0292 34.9208 8.26252C33.1777 6.67158 31.9403 6.6058 29.5826 6.99223L29.4264 7.01895L29.3504 7.03334L29.1942 7.06006L29.0359 7.0909L28.9578 7.10528L27.0976 7.47733V7.47322L27.1387 7.45883C30.8694 6.08576 34.0718 5.97476 36.2383 7.8987Z" fill="#5BD3F3"/>
<path d="M33.8765 18.0549C39.5414 28.7578 39.8991 34.5502 38.0121 38.6016C37.3338 40.061 35.638 41.0682 34.9083 41.4628C33.0789 42.4474 29.2886 41.9561 25.9012 40.9633L25.3935 40.7454C27.0954 41.2943 30.7953 42.0116 32.7891 41.4628C39.3379 39.6601 38.5589 31.8596 31.9751 19.6068C25.3935 7.35606 18.191 3.99328 12.5117 6.30365C11.9854 6.51563 11.5015 6.82059 11.0831 7.20396L11.1263 7.15874L11.2147 7.06624L11.2578 7.02102L11.3462 6.93058C11.9793 6.29337 12.6371 5.798 13.3133 5.56779C18.448 3.83295 27.2619 5.55751 33.8765 18.0549Z" fill="#D573DE"/>
</g>
<defs>
<clipPath id="clip0_557_26">
<rect width="48" height="48" fill="white"/>
</clipPath>
</defs>
</svg>
