<svg width="48" height="48" viewBox="0 0 48 48" fill="none" xmlns="http://www.w3.org/2000/svg">
<g clip-path="url(#clip0_557_26)">
<path d="M43.3125 0H4.6875C2.09867 0 0 2.09867 0 4.6875V43.3125C0 45.9013 2.09867 48 4.6875 48H43.3125C45.9013 48 48 45.9013 48 43.3125V4.6875C48 2.09867 45.9013 0 43.3125 0Z" fill="#06050A"/>
<path fill-rule="evenodd" clip-rule="evenodd" d="M38.0122 38.6016C39.8991 34.5502 39.5414 28.7578 33.8765 18.0549C27.2619 5.55751 18.448 3.83295 13.3134 5.56779C12.6371 5.798 11.9794 6.29337 11.3463 6.93058L11.2579 7.02102L11.2147 7.06624L11.1263 7.15874L11.0832 7.20396C11.5015 6.82059 11.9854 6.51563 12.5117 6.30365C18.1911 3.99328 25.3935 7.35606 31.9752 19.6068C38.5589 31.8596 39.3379 39.6601 32.7892 41.4628C30.7953 42.0116 27.0954 41.2943 25.3935 40.7454L25.9012 40.9633C29.2887 41.9561 33.079 42.4474 34.9084 41.4628C35.6381 41.0682 37.3338 40.061 38.0122 38.6016ZM33.8015 25.3195C33.5795 24.8393 33.3772 24.4016 33.2928 24.2049V24.2029C31.0523 27.6931 29.3565 30.1144 28.2055 31.467C20.5796 40.0096 14.9661 44.4309 9.33401 39.2778L9.28879 39.2305L9.20041 39.1381L9.1593 39.0928L9.07708 39.0024L9.03597 38.9572L8.9558 38.8688L8.87975 38.7825L8.8037 38.6941L8.73381 38.6118L8.66392 38.5296L8.59609 38.4495L8.53237 38.3693L8.47071 38.2912L8.44193 38.2521L8.38438 38.1761C8.2261 37.9644 8.09661 37.7691 8 37.5923C8.28992 38.2794 8.68981 38.9146 9.18396 39.4731C13.743 44.1863 21.1798 42.5563 30.8201 32.4639C33.0863 29.5844 33.4298 29.0073 34.4441 27.3034C34.4905 27.2254 34.5383 27.1451 34.5878 27.062C34.4788 26.7847 34.1199 26.0084 33.8015 25.3195ZM37.1304 22.6839C39.8067 15.8123 39.8067 11.0004 36.2383 7.89871C34.0718 5.97477 30.8694 6.08577 27.1387 7.45884L27.0976 7.47323V7.47734L28.9578 7.10529L29.0359 7.0909L29.1942 7.06007L29.3504 7.03335L29.4264 7.01896L29.5826 6.99224C31.9403 6.60581 33.1777 6.67158 34.9208 8.26253C37.9526 11.0292 37.9012 13.8041 35.7943 19.6417C35.8582 19.7874 35.9761 20.053 36.1171 20.3706C36.4754 21.1779 36.9829 22.321 37.1304 22.6839Z" fill="white"/>
</g>
<defs>
<clipPath id="clip0_557_26">
<rect width="48" height="48" fill="white"/>
</clipPath>
</defs>
</svg>
