<svg width="48" height="48" viewBox="0 0 48 48" fill="none" xmlns="http://www.w3.org/2000/svg">
<g clip-path="url(#clip0_250_1160)">
<rect width="48" height="48" rx="10.6875" fill="#23272F"/>
<path d="M33.56 25.1668C33.7596 25.6198 34.6379 27.4242 34.8175 27.8695C33.7197 29.6642 33.4602 30.1308 31.1589 32.9793C21.798 42.5262 14.5767 44.0681 10.1497 39.6097C9.66983 39.0814 9.28152 38.4805 9 37.8306C9.09381 37.9978 9.21955 38.1825 9.37324 38.3828L9.42913 38.4547L9.45707 38.4917L9.51695 38.5655L9.57882 38.6414L9.64469 38.7172L9.78041 38.8728L9.85426 38.9564L9.92811 39.038L10.006 39.1216L10.1656 39.2927L10.2954 39.425C15.7642 44.2995 21.2152 40.1172 28.6201 32.0363C29.7378 30.7569 31.3845 28.4664 33.56 25.1649V25.1668ZM36.4202 9.74202C39.8852 12.6761 39.8852 17.2279 37.2865 23.728C37.0869 23.2496 36.2087 21.3383 35.9891 20.8503C38.0349 15.3282 38.0848 12.7033 35.1408 10.0862C33.4483 8.58123 32.2467 8.51901 29.9574 8.88455L29.8057 8.90983L29.7318 8.92344L29.5801 8.94872L29.4265 8.97788L29.3506 8.99149L27.5443 9.34343V9.33954L27.5842 9.32593C31.2068 8.02708 34.3165 7.92208 36.4202 9.74202Z" fill="#5BD3F3"/>
<path d="M34.1269 19.3492C39.6277 29.4736 39.975 34.9529 38.1427 38.7853C37.4841 40.1658 35.8374 41.1185 35.1289 41.4918C33.3525 42.4232 29.672 41.9585 26.3826 41.0193L25.8896 40.8132C27.5423 41.3324 31.135 42.011 33.071 41.4918C39.4301 39.7866 38.6736 32.4077 32.2806 20.8172C25.8896 9.22871 18.8959 6.0477 13.3811 8.23318C12.87 8.4337 12.4001 8.72218 11.9939 9.08482L12.1636 8.91177L12.2494 8.82622C12.8641 8.22346 13.5028 7.75487 14.1595 7.5371C19.1454 5.89604 27.704 7.52737 34.1269 19.3492Z" fill="#D573DE"/>
</g>
<defs>
<clipPath id="clip0_250_1160">
<rect width="48" height="48" fill="white"/>
</clipPath>
</defs>
</svg>
