<svg width="48" height="48" viewBox="0 0 48 48" fill="none" xmlns="http://www.w3.org/2000/svg">
<g clip-path="url(#clip0_249_515)">
<rect width="48" height="48" rx="10.6875" fill="#23272F"/>
<path d="M38.3276 9.66015C34.6626 4.47694 27.4242 2.94062 22.1904 6.23553L12.9987 12.0241C11.757 12.796 10.692 13.8154 9.87167 15.0172C9.05135 16.2189 8.49382 17.5766 8.23471 19.0033C7.79625 21.4067 8.18163 23.8858 9.32985 26.0483C8.54306 27.2276 8.00644 28.5523 7.75241 29.9424C7.49055 31.3979 7.52547 32.8904 7.85511 34.3324C8.18476 35.7744 8.80248 37.1368 9.67207 38.3398C13.3379 43.5235 20.5763 45.0592 25.8092 41.7644L35.0009 35.9758C36.2427 35.204 37.3078 34.1846 38.1282 32.9829C38.9485 31.7811 39.506 30.4234 39.765 28.9966C40.2034 26.5933 39.8183 24.1142 38.6706 21.9515C39.4572 20.7722 39.9936 19.4475 40.2474 18.0576C40.5094 16.6021 40.4746 15.1095 40.145 13.6675C39.8153 12.2255 39.1974 10.863 38.3276 9.66015Z" fill="#FF3E00"/>
<path d="M21.2925 38.8275C19.846 39.1991 18.3189 39.1232 16.9175 38.6099C15.5161 38.0966 14.3079 37.1707 13.456 35.9573C12.933 35.2339 12.5614 34.4146 12.3631 33.5474C12.1648 32.6802 12.1438 31.7826 12.3013 30.9073C12.3546 30.6199 12.428 30.3365 12.521 30.0592L12.6941 29.5376L13.165 29.8794C14.2525 30.669 15.4685 31.2693 16.7606 31.6545L17.1022 31.7569L17.0707 32.0938C17.029 32.5731 17.1603 33.0515 17.4415 33.4442C17.6978 33.8097 18.0615 34.0887 18.4835 34.2435C18.9054 34.3982 19.3653 34.4213 19.8009 34.3095C20.0007 34.2568 20.1911 34.1741 20.3655 34.0644L29.5574 28.2764C29.7823 28.1365 29.9753 27.9518 30.124 27.7341C30.2727 27.5164 30.3738 27.2705 30.421 27.012C30.4682 26.7482 30.4617 26.4777 30.402 26.2164C30.3422 25.9551 30.2304 25.7081 30.073 25.4899C29.8165 25.1243 29.4527 24.8453 29.0306 24.6905C28.6085 24.5357 28.1485 24.5125 27.7127 24.6241C27.5132 24.6769 27.323 24.7595 27.1488 24.8691L23.6413 27.0785C23.0645 27.4409 22.4351 27.714 21.7748 27.8884C20.3283 28.2601 18.8012 28.1841 17.3998 27.6708C15.9984 27.1575 14.7902 26.2316 13.9384 25.0182C13.4153 24.2948 13.0437 23.4755 12.8454 22.6083C12.6472 21.7412 12.6262 20.8436 12.7837 19.9683C12.9395 19.1103 13.2747 18.2939 13.7681 17.5713C14.2614 16.8487 14.902 16.2358 15.6487 15.7718L24.8399 9.98339C25.4169 9.62044 26.0468 9.34697 26.7076 9.17251C28.1541 8.8009 29.6811 8.87686 31.0825 9.39014C32.4839 9.90342 33.6921 10.8293 34.544 12.0427C35.067 12.7661 35.4386 13.5854 35.6369 14.4526C35.8351 15.3198 35.8562 16.2174 35.6987 17.0927C35.6451 17.38 35.5717 17.6634 35.479 17.9408L35.3059 18.4624L34.8352 18.1211C33.7478 17.3311 32.5316 16.7305 31.2394 16.3452L30.8978 16.2428L30.9292 15.9059C30.9706 15.4267 30.8393 14.9484 30.5585 14.5555C30.3021 14.19 29.9384 13.911 29.5165 13.7563C29.0945 13.6015 28.6347 13.5785 28.1991 13.6902C27.9993 13.743 27.8089 13.8256 27.6345 13.9354L18.4425 19.7236C18.2177 19.8634 18.0248 20.048 17.8762 20.2657C17.7276 20.4833 17.6266 20.7292 17.5796 20.9876C17.5321 21.2514 17.5384 21.5219 17.5981 21.7833C17.6577 22.0447 17.7695 22.2917 17.9269 22.5099C18.1835 22.8755 18.5473 23.1545 18.9694 23.3093C19.3915 23.4642 19.8515 23.4873 20.2873 23.3757C20.487 23.3228 20.6774 23.2401 20.8518 23.1305L24.3589 20.922C24.9355 20.5591 25.5649 20.2857 26.2253 20.1114C27.6717 19.7398 29.1988 19.8157 30.6002 20.329C32.0016 20.8423 33.2098 21.7682 34.0616 22.9816C34.5847 23.705 34.9563 24.5243 35.1546 25.3915C35.3528 26.2587 35.3738 27.1562 35.2163 28.0315C35.0604 28.8896 34.7251 29.706 34.2318 30.4287C33.7385 31.1514 33.098 31.7644 32.3513 32.2286L23.1601 38.0166C22.5831 38.3796 21.9533 38.653 21.2925 38.8275Z" fill="white"/>
</g>
<defs>
<clipPath id="clip0_249_515">
<rect width="48" height="48" fill="white"/>
</clipPath>
</defs>
</svg>
