<svg width="48" height="48" viewBox="0 0 48 48" fill="none" xmlns="http://www.w3.org/2000/svg">
<g clip-path="url(#clip0_250_1128)">
<rect width="48" height="48" rx="10.6875" fill="#23272F"/>
<mask id="mask0_250_1128" style="mask-type:luminance" maskUnits="userSpaceOnUse" x="5" y="12" width="38" height="23">
<path d="M5 12H43V34.9594H5V12Z" fill="white"/>
</mask>
<g mask="url(#mask0_250_1128)">
<path fill-rule="evenodd" clip-rule="evenodd" d="M24 12C18.9333 12 15.7667 14.551 14.5 19.6531C16.4 17.1021 18.6167 16.1455 21.15 16.7832C22.5954 17.1467 23.6284 18.2033 24.772 19.3718C26.6347 21.2759 28.7908 23.4797 33.5 23.4797C38.5667 23.4797 41.7333 20.9287 43 15.8266C41.1 18.3776 38.8833 19.3343 36.35 18.6965C34.9046 18.333 33.8716 17.2764 32.728 16.1079C30.8653 14.2038 28.7092 12 24 12ZM14.5 23.4797C9.43333 23.4797 6.26667 26.0308 5 31.1329C6.9 28.5818 9.11667 27.6252 11.65 28.2629C13.0954 28.6272 14.1284 29.683 15.272 30.8515C17.1347 32.7556 19.2908 34.9594 24 34.9594C29.0667 34.9594 32.2333 32.4084 33.5 27.3063C31.6 29.8573 29.3833 30.814 26.85 30.1762C25.4046 29.8127 24.3716 28.7561 23.228 27.5876C21.3653 25.6835 19.2092 23.4797 14.5 23.4797Z" fill="#38BDF8"/>
</g>
</g>
<defs>
<clipPath id="clip0_250_1128">
<rect width="48" height="48" fill="white"/>
</clipPath>
</defs>
</svg>
