<svg width="48" height="48" viewBox="0 0 48 48" fill="none" xmlns="http://www.w3.org/2000/svg">
<g clip-path="url(#clip0_18_26)">
<mask id="mask0_18_26" style="mask-type:luminance" maskUnits="userSpaceOnUse" x="0" y="0" width="48" height="48">
<path d="M48 0H0V48H48V0Z" fill="white"/>
</mask>
<g mask="url(#mask0_18_26)">
<path d="M43.3125 0H4.6875C2.09867 0 0 2.09867 0 4.6875V43.3125C0 45.9013 2.09867 48 4.6875 48H43.3125C45.9013 48 48 45.9013 48 43.3125V4.6875C48 2.09867 45.9013 0 43.3125 0Z" fill="#0F172A"/>
</g>
<mask id="mask1_18_26" style="mask-type:luminance" maskUnits="userSpaceOnUse" x="4" y="12" width="40" height="24">
<path d="M4 12H44V36H4V12Z" fill="white"/>
</mask>
<g mask="url(#mask1_18_26)">
<path fill-rule="evenodd" clip-rule="evenodd" d="M24 12C18.6667 12 15.3333 14.6667 14 20C16 17.3333 18.3333 16.3333 21 17C22.5215 17.38 23.6089 18.4844 24.8126 19.7059C26.7733 21.6963 29.043 24 34 24C39.3333 24 42.6667 21.3333 44 16C42 18.6667 39.6667 19.6667 37 19C35.4785 18.62 34.3911 17.5156 33.1874 16.2941C31.2267 14.3037 28.957 12 24 12ZM14 24C8.66667 24 5.33333 26.6667 4 32C6 29.3333 8.33333 28.3333 11 29C12.5215 29.3807 13.6089 30.4844 14.8126 31.7059C16.7733 33.6963 19.043 36 24 36C29.3333 36 32.6667 33.3333 34 28C32 30.6667 29.6667 31.6667 27 31C25.4785 30.62 24.3911 29.5156 23.1874 28.2941C21.2267 26.3037 18.957 24 14 24Z" fill="#38BDF8"/>
</g>
</g>
<defs>
<clipPath id="clip0_18_26">
<rect width="48" height="48" fill="white"/>
</clipPath>
</defs>
</svg>
