<svg width="48" height="48" viewBox="0 0 48 48" fill="none" xmlns="http://www.w3.org/2000/svg">
<g clip-path="url(#clip0_384_1822)">
<path d="M43.3125 0H4.6875C2.09867 0 0 2.09867 0 4.6875V43.3125C0 45.9013 2.09867 48 4.6875 48H43.3125C45.9013 48 48 45.9013 48 43.3125V4.6875C48 2.09867 45.9013 0 43.3125 0Z" fill="#1B1B1F"/>
<path d="M43.9388 10.0409L25.0903 43.4316C24.7011 44.121 23.7013 44.125 23.3063 43.439L4.08399 10.0441C3.65366 9.29652 4.29895 8.39096 5.1541 8.54238L24.0229 11.8837C24.1432 11.905 24.2665 11.9048 24.3868 11.883L42.861 8.54717C43.7133 8.39328 44.3616 9.29183 43.9388 10.0409Z" fill="url(#paint0_linear_384_1822)"/>
<path d="M33.011 4.1597L19.0625 6.86741C18.8333 6.91191 18.6635 7.10438 18.6497 7.33537L17.7917 21.6918C17.7715 22.03 18.085 22.2924 18.4181 22.2163L22.3016 21.3284C22.6649 21.2454 22.9932 21.5624 22.9185 21.9244L21.7648 27.5216C21.6871 27.8984 22.0441 28.2205 22.4155 28.1087L24.8141 27.3868C25.1859 27.2749 25.5432 27.598 25.4646 27.975L23.631 36.7669C23.5163 37.3169 24.2547 37.6168 24.5626 37.1453L24.7683 36.8304L36.1343 14.3587C36.3246 13.9825 35.9964 13.5534 35.5793 13.6332L31.5819 14.3975C31.2063 14.4692 30.8867 14.1227 30.9927 13.7586L33.6017 4.7983C33.7078 4.43358 33.3871 4.08671 33.011 4.1597Z" fill="url(#paint1_linear_384_1822)"/>
</g>
<defs>
<linearGradient id="paint0_linear_384_1822" x1="3.61466" y1="7.34905" x2="26.7894" y2="39.118" gradientUnits="userSpaceOnUse">
<stop stop-color="#41D1FF"/>
<stop offset="1" stop-color="#BD34FE"/>
</linearGradient>
<linearGradient id="paint1_linear_384_1822" x1="22.9399" y1="4.89484" x2="27.1063" y2="33.7451" gradientUnits="userSpaceOnUse">
<stop stop-color="#FFEA83"/>
<stop offset="0.0833333" stop-color="#FFDD35"/>
<stop offset="1" stop-color="#FFA800"/>
</linearGradient>
<clipPath id="clip0_384_1822">
<rect width="48" height="48" fill="white"/>
</clipPath>
</defs>
</svg>
