<svg width="48" height="48" viewBox="0 0 48 48" fill="none" xmlns="http://www.w3.org/2000/svg">
<g clip-path="url(#clip0_249_1071)">
<rect width="48" height="48" rx="10.6875" fill="#23272F"/>
<path d="M40.3908 12.3843L24.8891 40.0693C24.569 40.6409 23.7467 40.6442 23.4218 40.0754L7.61272 12.3869C7.2588 11.7671 7.78952 11.0163 8.49282 11.1418L24.0112 13.9121C24.1102 13.9298 24.2115 13.9296 24.3105 13.9116L39.5043 11.1458C40.2053 11.0182 40.7385 11.7632 40.3908 12.3843Z" fill="url(#paint0_linear_249_1071)"/>
<path d="M31.4034 7.50812L19.9316 9.75315C19.7431 9.79004 19.6035 9.94963 19.5921 10.1411L18.8864 22.0444C18.8698 22.3248 19.1276 22.5424 19.4016 22.4793L22.5955 21.7431C22.8944 21.6743 23.1644 21.9371 23.103 22.2373L22.1541 26.8781C22.0902 27.1904 22.3838 27.4575 22.6892 27.3648L24.6619 26.7662C24.9677 26.6735 25.2616 26.9413 25.1969 27.2539L23.6889 34.5436C23.5946 34.9995 24.2018 35.2482 24.4551 34.8572L24.6243 34.5961L33.9721 15.9644C34.1286 15.6524 33.8587 15.2967 33.5156 15.3628L30.228 15.9965C29.9191 16.056 29.6562 15.7686 29.7434 15.4668L31.8892 8.0376C31.9765 7.73521 31.7127 7.44761 31.4034 7.50812Z" fill="url(#paint1_linear_249_1071)"/>
</g>
<defs>
<linearGradient id="paint0_linear_249_1071" x1="7.22673" y1="6.40397" x2="29.4908" y2="33.3502" gradientUnits="userSpaceOnUse">
<stop stop-color="#41D1FF"/>
<stop offset="1" stop-color="#BD34FE"/>
</linearGradient>
<linearGradient id="paint1_linear_249_1071" x1="23.1205" y1="8.11764" x2="26.6019" y2="32.0301" gradientUnits="userSpaceOnUse">
<stop stop-color="#FFEA83"/>
<stop offset="0.0833333" stop-color="#FFDD35"/>
<stop offset="1" stop-color="#FFA800"/>
</linearGradient>
<clipPath id="clip0_249_1071">
<rect width="48" height="48" fill="white"/>
</clipPath>
</defs>
</svg>
