<svg width="48" height="48" viewBox="0 0 48 48" fill="none" xmlns="http://www.w3.org/2000/svg">
<g clip-path="url(#clip0_384_1813)">
<path d="M43.3125 0H4.6875C2.09867 0 0 2.09867 0 4.6875V43.3125C0 45.9013 2.09867 48 4.6875 48H43.3125C45.9013 48 48 45.9013 48 43.3125V4.6875C48 2.09867 45.9013 0 43.3125 0Z" fill="white"/>
<g clip-path="url(#clip1_384_1813)">
<path d="M24.5 0L46 11.9986V36.0014L24.5 48L3 36.0014V11.9986L24.5 0Z" fill="white"/>
<path d="M42.1611 35.1738L25.2111 44.6345V37.2676L35.7722 31.5342L42.1611 35.1738ZM43.3222 34.1378V14.3557L37.1222 17.8911V30.6078L43.3222 34.1378ZM6.77223 35.1738L23.7222 44.6345V37.2676L13.1556 31.5342L6.77223 35.1738ZM5.61111 34.1378V14.3557L11.8111 17.8911V30.6078L5.61111 34.1378ZM6.33889 13.073L23.7222 3.37109V10.4913L12.5833 16.5372L12.4944 16.5866L6.33889 13.073ZM42.5944 13.073L25.2111 3.37109V10.4913L36.35 16.5318L36.4389 16.5811L42.5944 13.073Z" fill="#8ED6FB"/>
<path d="M23.7222 35.5902L13.3 29.9334V18.7351L23.7222 24.6714V35.5902ZM25.2111 35.5902L35.6333 29.9389V18.7351L25.2111 24.6714V35.5902ZM14.0055 17.4415L24.4667 11.7683L34.9278 17.4415L24.4667 23.3997L14.0055 17.4415Z" fill="#1C78C0"/>
</g>
</g>
<defs>
<clipPath id="clip0_384_1813">
<rect width="48" height="48" fill="white"/>
</clipPath>
<clipPath id="clip1_384_1813">
<rect width="43" height="48" fill="white" transform="translate(3)"/>
</clipPath>
</defs>
</svg>
