<svg width="48" height="48" viewBox="0 0 48 48" fill="none" xmlns="http://www.w3.org/2000/svg">
<g clip-path="url(#clip0_249_1077)">
<rect width="48" height="48" rx="10.6875" fill="#23272F"/>
<path d="M23.5581 3L42.1163 13.4988V34.5012L23.5581 45L5 34.5012V13.4988L23.5581 3Z" fill="white"/>
<path d="M38.8027 33.777L24.1719 42.0552V35.6091L33.288 30.5923L38.8027 33.777ZM39.8049 32.8705V15.5612L34.4533 18.6547V29.7818L39.8049 32.8705ZM8.25607 33.777L22.8868 42.0552V35.6091L13.766 30.5923L8.25607 33.777ZM7.25383 32.8705V15.5612L12.6055 18.6547V29.7818L7.25383 32.8705ZM7.88203 14.4388L22.8868 5.94964V12.1799L13.272 17.47L13.1953 17.5132L7.88203 14.4388ZM39.1767 14.4388L24.1719 5.94964V12.1799L33.7867 17.4652L33.8634 17.5084L39.1767 14.4388Z" fill="#8ED6FB"/>
<path d="M22.8868 34.1415L13.8906 29.1918V19.3933L22.8868 24.5875V34.1415ZM24.1719 34.1415L33.1681 29.1966V19.3933L24.1719 24.5875V34.1415ZM14.4997 18.2614L23.5294 13.2974L32.5591 18.2614L23.5294 23.4748L14.4997 18.2614Z" fill="#1C78C0"/>
</g>
<defs>
<clipPath id="clip0_249_1077">
<rect width="48" height="48" fill="white"/>
</clipPath>
</defs>
</svg>
